<svg id="svg" version="1.1" xmlns="http://www.w3.org/2000/svg" xmlns:xlink="http://www.w3.org/1999/xlink" width="400" height="314.15313225058003" viewBox="0, 0, 400,314.15313225058003"><g id="svgg"><path id="path0" d="M141.738 4.572 C 135.098 6.080,131.841 9.842,131.823 16.025 C 131.808 21.208,133.655 23.117,141.098 25.614 C 146.574 27.450,147.969 28.440,147.987 30.503 C 148.026 34.919,138.782 34.598,138.264 30.165 L 138.099 28.751 134.058 28.663 C 129.018 28.553,129.142 28.464,129.151 32.167 C 129.166 38.696,132.371 40.899,141.870 40.913 C 151.379 40.927,155.953 38.037,157.131 31.271 C 158.233 24.942,155.957 21.895,148.527 19.754 C 141.813 17.819,140.088 16.379,141.225 13.660 C 142.152 11.440,147.299 10.730,149.327 12.543 C 150.426 13.525,150.749 15.766,149.934 16.749 C 149.319 17.490,149.855 17.596,154.193 17.596 L 158.398 17.596 158.914 16.418 C 160.394 13.032,159.486 8.353,156.975 6.438 C 154.168 4.296,146.883 3.404,141.738 4.572 M334.171 4.530 C 327.317 6.044,323.959 9.879,323.969 16.182 C 323.977 21.026,325.962 23.070,333.016 25.498 C 339.923 27.875,341.749 29.734,339.592 32.192 C 337.310 34.790,330.558 33.498,330.558 30.463 C 330.558 28.601,330.541 28.594,326.002 28.594 C 321.238 28.594,321.527 28.411,321.228 31.614 C 320.585 38.497,326.636 42.023,337.131 40.881 C 345.676 39.952,349.459 36.248,349.521 28.752 C 349.560 24.073,347.259 21.537,341.555 19.975 C 334.495 18.041,332.532 16.645,333.267 14.083 C 333.726 12.485,334.952 11.812,337.652 11.675 C 341.666 11.472,342.738 12.385,342.391 15.707 L 342.192 17.614 346.334 17.527 L 350.476 17.439 351.122 16.339 C 352.831 13.428,351.658 8.118,348.881 6.197 C 346.114 4.282,338.960 3.471,334.171 4.530 M74.006 5.106 C 73.293 8.219,67.881 40.020,68.037 40.176 C 68.344 40.484,75.381 40.531,76.170 40.231 C 76.910 39.949,77.146 38.995,78.430 31.108 C 79.134 26.778,78.673 27.023,86.135 27.023 C 91.769 27.023,92.353 26.972,92.506 26.473 C 92.726 25.756,93.637 20.470,93.637 19.912 C 93.637 19.563,92.496 19.481,87.588 19.477 C 80.059 19.471,80.490 19.723,81.136 15.703 C 81.779 11.699,80.784 12.123,89.971 11.940 L 97.879 11.783 98.258 9.898 C 98.467 8.861,98.732 7.200,98.849 6.206 L 99.060 4.399 86.614 4.399 L 74.168 4.399 74.006 5.106 M107.178 5.106 C 106.454 7.012,95.094 38.883,94.959 39.388 C 94.709 40.326,95.466 40.525,99.293 40.525 C 104.421 40.526,104.060 40.757,105.283 36.699 C 106.632 32.220,106.455 32.364,110.602 32.364 C 115.351 32.364,115.032 32.055,114.797 36.433 L 114.598 40.123 115.351 40.324 C 116.310 40.581,122.960 40.596,123.619 40.343 C 124.151 40.139,124.378 14.523,123.910 7.463 L 123.707 4.399 115.577 4.399 L 107.447 4.399 107.178 5.106 M164.504 4.696 C 164.363 4.923,163.079 11.367,163.079 11.844 C 163.079 11.897,165.660 11.942,168.814 11.945 C 171.968 11.948,174.736 12.069,174.965 12.214 C 175.369 12.470,174.868 15.824,172.661 27.651 C 171.452 34.127,170.568 39.958,170.765 40.156 C 171.117 40.509,177.924 40.612,178.800 40.278 C 179.572 39.982,179.645 39.685,181.416 29.492 C 183.721 16.223,184.420 12.491,184.637 12.272 C 184.733 12.176,187.522 12.027,190.834 11.940 L 196.858 11.783 197.392 8.798 C 197.685 7.156,197.933 5.495,197.942 5.106 L 197.958 4.399 181.323 4.399 C 171.208 4.399,164.616 4.516,164.504 4.696 M214.317 5.106 C 214.163 5.495,213.657 8.005,213.192 10.683 C 212.727 13.362,212.017 17.463,211.613 19.796 C 211.023 23.198,209.781 30.280,208.188 39.323 C 207.984 40.479,208.300 40.527,216.182 40.519 C 230.476 40.506,234.109 39.229,236.268 33.456 C 238.239 28.190,237.699 25.119,234.407 22.863 C 233.638 22.336,233.635 22.317,234.250 21.951 C 237.964 19.743,239.929 12.219,237.855 8.152 C 236.247 5.002,233.848 4.399,222.916 4.399 L 214.598 4.399 214.317 5.106 M247.142 5.106 C 246.395 8.411,241.010 40.015,241.167 40.173 C 241.528 40.536,248.769 40.605,249.429 40.252 C 249.882 40.010,250.153 39.343,250.426 37.792 C 253.408 20.886,256.088 5.311,256.088 4.883 C 256.088 3.967,247.350 4.184,247.142 5.106 M263.516 4.642 C 263.335 4.935,262.398 9.856,261.140 17.125 C 260.159 22.790,258.598 31.700,257.809 36.135 C 257.548 37.604,257.259 39.045,257.167 39.337 C 256.877 40.261,258.041 40.529,262.004 40.451 C 266.575 40.361,265.891 41.233,267.238 33.781 C 268.455 27.053,268.464 27.035,270.441 27.028 C 272.313 27.021,272.430 27.230,274.301 33.923 C 276.249 40.893,275.735 40.357,280.593 40.490 C 286.239 40.644,286.004 41.608,282.929 30.875 L 280.548 22.563 282.319 19.687 C 283.293 18.105,285.778 14.130,287.842 10.854 C 289.906 7.577,291.595 4.781,291.595 4.639 C 291.595 4.498,289.516 4.421,286.976 4.469 L 282.358 4.556 277.883 11.616 C 273.202 19.002,272.811 19.485,271.503 19.477 C 269.937 19.467,269.750 19.111,270.159 16.911 C 270.363 15.819,270.756 13.653,271.033 12.097 C 271.310 10.542,271.713 8.346,271.927 7.218 C 272.141 6.090,272.259 4.994,272.189 4.783 C 272.044 4.348,263.780 4.214,263.516 4.642 M296.189 4.949 C 296.100 5.251,295.947 5.994,295.848 6.599 C 295.605 8.092,291.368 32.209,290.797 35.350 C 289.893 40.325,289.904 40.115,290.541 40.282 C 292.053 40.676,314.070 40.565,314.603 40.160 C 315.041 39.828,316.411 34.354,316.417 32.914 C 316.417 32.785,312.989 32.677,308.798 32.674 C 299.726 32.668,300.282 32.873,300.828 29.736 C 301.384 26.535,300.907 26.734,308.254 26.637 L 314.683 26.551 315.224 23.723 C 315.522 22.168,315.771 20.436,315.778 19.874 L 315.789 18.853 309.495 18.853 C 304.391 18.853,303.169 18.770,303.032 18.413 C 302.903 18.077,303.733 12.511,303.960 12.190 C 303.986 12.154,307.612 12.048,312.019 11.954 L 320.031 11.783 320.566 9.112 C 320.860 7.643,321.108 5.982,321.116 5.420 L 321.131 4.399 308.741 4.399 C 297.211 4.399,296.339 4.437,296.189 4.949 M226.394 12.246 C 228.073 12.633,229.065 13.816,229.065 15.430 C 229.065 18.374,227.510 19.482,223.376 19.482 L 220.809 19.482 221.017 17.675 C 221.401 14.352,221.936 12.284,222.449 12.145 C 223.337 11.906,225.118 11.951,226.394 12.246 M115.289 13.173 C 115.724 13.448,115.577 24.778,115.130 25.502 C 115.040 25.647,113.632 25.766,112.000 25.766 C 108.392 25.766,108.495 26.165,110.469 19.839 C 111.259 17.309,112.045 14.789,112.215 14.238 C 112.386 13.687,112.765 13.173,113.058 13.096 C 113.979 12.853,114.831 12.883,115.289 13.173 M226.912 26.261 C 228.928 27.304,228.582 30.531,226.314 31.836 C 224.841 32.683,219.115 33.004,218.828 32.255 C 218.508 31.421,219.338 26.426,219.888 25.875 C 220.495 25.269,225.527 25.545,226.912 26.261 M298.193 53.577 C 295.700 54.071,292.016 54.788,288.452 55.476 C 286.984 55.759,284.792 56.190,283.582 56.434 C 282.372 56.678,280.322 57.077,279.026 57.319 C 276.671 57.760,273.275 58.416,269.128 59.229 C 267.918 59.467,265.302 59.961,263.315 60.327 C 258.495 61.216,258.821 60.064,260.693 69.599 C 261.134 71.846,261.597 74.250,261.721 74.941 C 261.845 75.632,262.164 76.622,262.430 77.141 C 262.697 77.659,263.281 79.568,263.729 81.383 C 264.177 83.197,265.761 89.631,267.250 95.679 C 268.738 101.728,270.099 107.137,270.273 107.698 C 270.662 108.950,270.605 108.947,278.093 108.095 C 281.112 107.752,284.175 107.469,284.899 107.467 C 285.623 107.464,286.286 107.348,286.373 107.209 C 286.559 106.907,280.184 81.128,279.499 79.412 C 279.239 78.761,279.026 77.745,279.026 77.155 C 279.026 76.565,278.879 75.695,278.699 75.221 C 278.205 73.923,278.686 73.678,283.582 72.741 C 286.002 72.277,290.809 71.329,294.266 70.633 C 297.722 69.937,301.225 69.268,302.050 69.146 C 304.160 68.834,304.226 68.701,303.685 65.818 C 303.427 64.441,303.003 62.184,302.744 60.801 C 302.485 59.419,302.088 57.291,301.862 56.073 C 301.636 54.855,301.346 53.689,301.218 53.481 C 300.947 53.042,300.890 53.044,298.193 53.577 M120.871 86.932 C 120.317 87.486,120.643 102.435,121.210 102.452 C 121.512 102.462,125.931 102.455,131.029 102.437 C 141.810 102.400,140.906 102.116,142.513 106.049 C 143.148 107.604,144.980 111.987,146.583 115.789 C 148.186 119.592,152.216 129.207,155.540 137.156 C 158.864 145.106,161.695 151.732,161.831 151.880 C 162.236 152.321,164.302 151.490,167.477 149.608 C 169.118 148.635,171.734 147.199,173.290 146.417 C 176.236 144.936,177.331 143.354,175.814 142.772 C 175.537 142.666,175.103 142.177,174.849 141.686 C 174.184 140.401,170.972 135.988,164.703 127.745 C 157.913 118.819,157.902 118.775,162.592 118.775 C 165.439 118.775,165.542 119.454,161.070 108.758 C 159.742 105.582,158.744 102.895,158.851 102.788 C 158.958 102.680,162.604 102.522,166.954 102.435 L 174.863 102.278 174.863 94.580 L 174.863 86.881 147.972 86.801 C 133.183 86.757,120.987 86.816,120.871 86.932 M293.166 132.569 C 291.870 133.054,288.971 134.228,286.724 135.180 C 284.478 136.131,282.392 136.996,282.090 137.102 C 281.086 137.452,281.310 137.917,286.348 145.932 C 289.091 150.296,289.106 150.025,286.033 151.783 C 275.974 157.538,266.103 168.273,261.717 178.227 C 260.126 181.836,258.602 186.544,258.602 187.845 C 258.602 188.418,258.459 189.152,258.286 189.477 C 256.974 191.928,257.063 203.469,258.440 209.485 C 267.561 249.332,322.805 269.517,365.436 248.579 C 409.011 227.178,411.511 175.520,370.149 151.208 C 352.154 140.631,327.901 137.492,306.914 143.024 C 303.766 143.854,304.185 144.175,300.412 138.059 C 295.860 130.682,296.637 131.271,293.166 132.569 M68.342 140.330 C 67.651 140.395,65.247 140.603,63.001 140.791 C 37.473 142.930,14.289 157.582,4.995 177.450 C -13.035 215.995,21.028 256.763,71.328 256.836 C 113.000 256.897,146.024 227.989,142.502 194.533 C 142.011 189.867,141.930 189.679,140.599 190.061 C 140.087 190.208,138.537 190.421,137.155 190.534 C 135.773 190.647,133.264 190.902,131.579 191.100 L 128.515 191.461 128.515 192.431 C 128.515 192.965,128.678 194.569,128.877 195.995 C 131.245 212.944,116.121 232.159,94.737 239.370 C 47.411 255.331,-0.900 219.084,18.227 181.967 C 34.363 150.654,88.210 144.386,115.996 170.587 C 119.541 173.929,119.074 173.824,122.509 172.055 C 123.998 171.289,126.445 170.076,127.947 169.360 C 132.297 167.287,132.276 167.182,126.369 161.444 C 116.184 151.551,103.569 145.038,88.767 142.031 C 83.385 140.937,71.975 139.987,68.342 140.330 M335.201 154.448 C 380.430 159.146,401.556 199.078,373.319 226.498 C 349.076 250.040,301.601 248.221,280.399 222.938 C 263.892 203.253,269.942 176.932,294.191 162.936 C 296.214 161.768,296.014 161.584,300.386 168.626 C 302.516 172.056,305.121 176.240,306.175 177.924 C 307.229 179.608,308.657 181.911,309.348 183.042 C 314.862 192.061,325.082 208.401,325.290 208.530 C 325.729 208.801,338.727 200.671,338.727 200.126 C 338.727 199.710,338.257 198.816,337.006 196.858 C 336.454 195.994,334.688 193.166,333.081 190.573 C 331.473 187.981,329.628 185.012,328.980 183.975 C 328.332 182.938,325.789 178.837,323.330 174.863 C 320.870 170.888,317.920 166.181,316.774 164.403 C 313.722 159.669,311.944 156.430,312.236 156.138 C 313.701 154.673,327.557 153.653,335.201 154.448 M44.415 274.320 C 37.147 275.086,32.517 279.237,31.704 285.717 C 31.119 290.373,31.361 290.642,36.135 290.642 C 40.377 290.642,40.654 290.532,40.437 288.922 C 39.997 285.658,42.160 282.434,45.083 281.996 C 49.210 281.377,51.389 284.204,49.644 287.915 C 48.719 289.885,47.474 290.812,41.236 294.180 C 33.518 298.346,32.059 299.523,30.274 303.014 C 29.404 304.716,28.176 309.842,28.549 310.214 C 28.681 310.347,34.571 310.418,41.637 310.373 L 54.484 310.291 55.097 306.946 C 55.959 302.237,56.443 302.592,49.159 302.592 C 41.989 302.592,41.996 302.598,46.203 300.181 C 56.059 294.520,59.375 290.384,59.384 283.739 C 59.391 278.343,56.241 275.098,50.240 274.319 C 47.667 273.985,47.597 273.985,44.415 274.320 M354.124 274.310 C 346.172 275.111,341.965 278.877,341.615 285.507 C 341.328 290.958,343.532 293.381,350.911 295.727 C 357.843 297.930,360.286 301.363,356.151 303.090 C 352.406 304.655,348.330 303.133,348.085 300.079 L 347.997 298.979 343.598 298.979 L 339.199 298.979 338.923 300.601 C 337.734 307.611,341.909 311.076,351.548 311.076 C 362.057 311.076,366.962 307.313,367.077 299.160 C 367.151 293.893,365.254 291.935,357.949 289.737 C 355.733 289.071,353.483 288.300,352.950 288.024 C 349.401 286.189,350.207 282.550,354.323 281.825 C 358.841 281.029,360.959 283.121,359.761 287.196 C 359.643 287.598,360.242 287.667,363.865 287.667 L 368.107 287.667 368.707 286.437 C 372.411 278.851,365.563 273.156,354.124 274.310 M76.190 274.639 C 76.010 274.932,74.784 281.265,74.784 281.907 C 74.784 282.051,77.455 282.168,80.721 282.168 C 85.183 282.168,86.693 282.266,86.802 282.561 C 86.929 282.906,85.811 289.597,83.113 304.635 C 81.950 311.121,81.532 310.448,86.718 310.448 C 91.017 310.448,91.115 310.433,91.272 309.741 C 91.360 309.352,92.425 303.307,93.638 296.308 C 94.851 289.309,95.981 283.264,96.148 282.875 C 96.448 282.178,96.531 282.168,102.397 282.168 L 108.343 282.168 108.680 280.676 C 109.316 277.863,109.703 275.185,109.535 274.749 C 109.323 274.195,76.531 274.087,76.190 274.639 M114.143 274.705 C 113.973 274.921,113.752 275.593,113.651 276.198 C 113.549 276.803,113.114 279.277,112.683 281.697 C 112.252 284.116,111.527 288.217,111.072 290.809 C 110.617 293.401,110.121 296.229,109.969 297.093 C 109.817 297.958,109.264 301.068,108.739 304.006 C 108.214 306.944,107.783 309.597,107.781 309.901 C 107.777 310.422,108.518 310.450,120.267 310.373 L 132.757 310.291 133.145 308.405 C 133.358 307.368,133.570 305.672,133.616 304.635 L 133.700 302.749 125.923 302.665 C 118.779 302.588,118.148 302.537,118.165 302.037 C 118.176 301.738,118.356 300.503,118.565 299.293 L 118.946 297.093 125.468 297.009 C 131.880 296.925,131.996 296.912,132.284 296.223 C 132.595 295.481,133.543 290.496,133.543 289.606 C 133.543 289.133,132.922 289.081,127.249 289.081 C 119.948 289.081,120.384 289.317,120.967 285.686 C 121.585 281.835,120.751 282.168,129.771 282.168 L 137.603 282.168 137.904 280.990 C 138.445 278.869,138.948 275.246,138.767 274.775 C 138.524 274.141,114.640 274.074,114.143 274.705 M149.120 275.018 C 148.862 275.412,147.879 277.924,146.935 280.601 C 145.992 283.277,143.299 290.825,140.952 297.373 C 138.605 303.921,136.685 309.545,136.685 309.871 C 136.685 310.430,136.954 310.459,141.280 310.378 L 145.874 310.291 146.773 307.359 C 147.268 305.747,147.853 304.050,148.074 303.589 L 148.477 302.749 152.400 302.749 L 156.324 302.749 156.412 306.599 L 156.500 310.448 161.056 310.448 C 164.829 310.448,165.644 310.366,165.795 309.974 C 165.895 309.713,165.855 301.618,165.706 291.985 L 165.436 274.470 157.513 274.386 L 149.589 274.302 149.120 275.018 M177.314 274.561 C 177.108 274.693,176.641 276.493,176.277 278.563 C 175.913 280.632,174.845 286.709,173.904 292.066 C 172.963 297.423,171.909 303.362,171.561 305.263 C 171.213 307.164,170.930 309.108,170.932 309.584 L 170.935 310.448 175.297 310.448 L 179.659 310.448 180.202 307.384 C 182.497 294.455,183.095 291.449,183.359 291.528 C 183.525 291.577,184.128 293.274,184.698 295.298 C 185.269 297.323,185.944 299.721,186.199 300.628 L 186.663 302.278 189.944 302.278 L 193.225 302.278 194.369 300.471 C 201.388 289.389,201.109 289.419,199.200 299.954 C 198.483 303.911,197.822 307.891,197.731 308.798 L 197.566 310.448 201.979 310.448 L 206.392 310.448 206.567 309.584 C 206.664 309.108,207.102 306.669,207.540 304.163 C 207.979 301.658,208.827 296.850,209.426 293.480 C 213.304 271.653,213.516 274.311,207.896 274.317 C 202.850 274.323,204.077 273.295,197.670 282.894 C 194.693 287.354,192.090 290.948,191.886 290.880 C 191.683 290.813,190.408 287.234,189.053 282.928 C 187.698 278.621,186.443 274.921,186.265 274.705 C 185.902 274.266,177.980 274.138,177.314 274.561 M232.288 274.571 C 232.073 274.707,231.543 276.791,231.111 279.200 C 230.680 281.610,230.180 284.360,230.002 285.310 C 229.683 287.010,227.755 298.016,226.533 305.106 C 226.191 307.093,225.832 309.108,225.735 309.584 L 225.559 310.448 235.292 310.448 C 250.555 310.448,253.654 308.656,255.008 299.044 C 255.345 296.654,253.300 292.852,251.678 292.852 C 251.061 292.852,251.403 292.242,252.324 291.698 C 257.473 288.656,257.613 278.170,252.540 275.636 C 250.254 274.494,233.773 273.627,232.288 274.571 M264.949 274.690 C 264.742 274.897,264.572 275.357,264.572 275.711 C 264.572 276.065,264.360 277.486,264.100 278.869 C 263.264 283.313,260.434 299.335,258.885 308.397 C 258.527 310.487,258.511 310.480,263.340 310.379 L 267.557 310.291 270.654 292.773 C 272.358 283.138,273.670 275.043,273.571 274.784 C 273.335 274.170,265.554 274.085,264.949 274.690 M281.317 274.564 C 281.105 274.698,280.299 278.428,279.499 282.964 C 278.709 287.452,277.575 293.881,276.980 297.251 C 276.385 300.621,275.631 304.893,275.304 306.745 C 274.585 310.821,274.191 310.448,279.217 310.448 C 284.169 310.448,283.535 311.191,284.828 303.867 C 286.072 296.819,285.866 297.251,287.981 297.251 C 290.073 297.251,289.805 296.782,291.920 304.163 L 293.675 310.291 298.291 310.378 C 303.921 310.484,303.599 311.648,300.706 301.650 C 300.231 300.008,299.454 297.305,298.978 295.643 L 298.114 292.622 300.117 289.443 C 301.219 287.695,303.040 284.803,304.163 283.018 C 305.287 281.233,306.889 278.690,307.724 277.368 C 309.664 274.295,309.681 274.312,304.695 274.317 C 299.636 274.323,300.742 273.414,295.242 282.090 L 290.610 289.395 289.235 289.395 C 287.345 289.395,287.361 289.604,288.648 282.060 C 289.281 278.349,289.712 275.088,289.607 274.813 C 289.399 274.271,282.122 274.052,281.317 274.564 M313.996 274.702 C 313.828 274.920,313.323 277.290,312.874 279.969 C 312.426 282.647,311.060 290.462,309.839 297.334 C 308.618 304.207,307.620 309.969,307.620 310.139 C 307.620 310.547,332.335 310.562,332.588 310.154 C 332.891 309.663,333.997 303.133,333.824 302.853 C 333.735 302.710,330.215 302.592,326.002 302.592 C 317.467 302.592,317.879 302.721,318.316 300.193 C 318.951 296.515,318.043 296.936,325.341 296.936 C 330.106 296.936,331.822 296.835,332.067 296.540 C 332.399 296.140,333.383 291.098,333.385 289.788 L 333.386 289.081 327.120 289.081 C 319.899 289.081,320.278 289.267,320.826 285.984 C 321.534 281.748,320.524 282.192,329.684 282.095 L 337.628 282.011 338.186 279.183 C 338.493 277.628,338.705 275.931,338.657 275.412 L 338.570 274.470 326.436 274.388 C 316.961 274.323,314.234 274.392,313.996 274.702 M245.771 283.381 C 247.485 285.300,246.732 288.244,244.262 289.276 C 242.753 289.907,238.844 289.859,238.593 289.207 C 238.406 288.718,239.304 282.948,239.656 282.378 C 240.146 281.586,244.858 282.359,245.771 283.381 M157.266 287.824 C 157.266 290.330,157.150 293.193,157.008 294.187 L 156.750 295.994 153.630 295.994 C 149.895 295.994,150.046 296.567,152.081 290.125 C 152.944 287.391,153.651 285.056,153.652 284.938 C 153.658 283.627,154.317 283.079,155.773 283.172 L 157.266 283.268 157.266 287.824 M243.676 296.100 C 246.468 296.928,246.648 300.365,243.979 301.877 C 242.915 302.479,242.265 302.583,239.513 302.587 L 236.292 302.592 236.292 301.754 C 236.292 300.537,236.951 296.872,237.285 296.229 C 237.631 295.565,241.601 295.485,243.676 296.100 " stroke="none" fill="#070707" fill-rule="evenodd"></path><path id="path1" d="M366.009 99.768 C 365.920 99.856,364.023 100.064,361.793 100.229 C 356.862 100.595,352.444 100.999,344.383 101.822 C 341.013 102.166,337.595 102.445,336.788 102.441 C 335.980 102.438,334.637 102.568,333.802 102.731 C 331.923 103.098,326.019 103.682,320.817 104.015 C 318.657 104.154,315.758 104.417,314.375 104.601 C 312.993 104.785,308.751 105.230,304.949 105.591 C 301.147 105.951,297.188 106.366,296.151 106.513 C 295.114 106.661,292.602 106.793,290.569 106.808 C 288.536 106.822,286.627 106.962,286.327 107.117 C 286.027 107.273,283.236 107.647,280.126 107.949 C 271.149 108.821,270.542 108.849,270.542 108.382 C 270.542 108.106,270.413 108.144,270.149 108.498 C 269.828 108.930,268.812 109.084,264.572 109.343 C 261.720 109.518,258.009 109.803,256.324 109.976 C 254.639 110.149,251.881 110.434,250.196 110.609 C 246.628 110.980,237.347 111.752,231.265 112.183 C 228.932 112.349,226.174 112.626,225.137 112.800 C 224.101 112.973,222.498 113.116,221.576 113.117 C 219.987 113.119,216.264 113.465,206.284 114.540 C 203.865 114.800,200.189 115.155,198.115 115.328 C 190.114 115.997,183.899 116.600,182.090 116.884 C 179.761 117.248,169.287 118.209,166.605 118.304 C 165.520 118.342,164.542 118.464,164.432 118.574 C 164.322 118.684,163.498 118.775,162.603 118.775 C 157.901 118.775,157.911 118.816,164.703 127.745 C 170.972 135.988,174.184 140.401,174.849 141.686 C 175.103 142.177,175.537 142.666,175.814 142.772 C 177.331 143.354,176.236 144.936,173.290 146.417 C 171.734 147.199,169.118 148.635,167.477 149.608 C 164.410 151.425,162.377 152.268,161.848 151.940 C 161.682 151.838,161.432 151.952,161.292 152.194 C 161.152 152.436,159.906 153.217,158.523 153.931 C 157.141 154.644,155.797 155.359,155.538 155.518 C 155.279 155.678,153.370 156.646,151.296 157.669 C 149.222 158.692,146.925 159.833,146.190 160.204 C 145.456 160.576,144.254 161.175,143.519 161.535 C 142.785 161.896,139.955 163.343,137.231 164.751 C 132.946 166.965,132.196 167.259,131.665 166.928 C 131.160 166.612,131.082 166.623,131.224 166.991 C 131.435 167.543,129.491 168.822,126.560 170.059 C 125.398 170.550,123.378 171.529,122.071 172.234 C 120.646 173.002,119.447 173.451,119.077 173.354 C 118.722 173.262,118.460 173.350,118.460 173.563 C 118.460 173.906,115.500 175.513,108.110 179.182 C 106.458 180.002,104.753 180.884,104.321 181.141 C 103.888 181.399,102.616 182.048,101.493 182.584 C 100.369 183.121,98.955 183.817,98.350 184.133 C 95.577 185.579,87.099 189.908,86.253 190.309 C 85.734 190.555,84.886 190.984,84.368 191.262 C 81.881 192.594,74.852 196.013,74.156 196.229 C 72.775 196.658,69.468 198.728,69.455 199.171 C 69.441 199.658,72.124 199.552,75.727 198.923 C 76.850 198.727,80.385 198.209,83.582 197.772 C 86.779 197.334,90.102 196.861,90.966 196.719 C 91.830 196.577,93.739 196.294,95.208 196.091 C 98.280 195.665,106.391 194.289,108.248 193.879 C 109.335 193.639,111.369 193.394,117.046 192.820 C 117.738 192.750,119.505 192.475,120.974 192.209 C 125.662 191.361,127.437 191.268,128.010 191.841 C 128.420 192.251,128.515 192.262,128.515 191.899 C 128.515 191.564,129.326 191.362,131.736 191.095 C 142.293 189.926,141.835 189.985,142.027 189.765 C 142.415 189.321,146.537 188.423,149.254 188.191 C 150.896 188.051,153.794 187.715,155.695 187.444 C 157.596 187.172,160.848 186.740,162.922 186.483 C 164.996 186.226,167.612 185.874,168.735 185.700 C 169.859 185.526,172.262 185.184,174.077 184.940 C 175.892 184.696,179.356 184.200,181.775 183.837 C 184.195 183.474,188.013 182.973,190.259 182.722 C 192.506 182.471,195.758 182.047,197.486 181.780 C 199.214 181.514,202.113 181.091,203.928 180.841 C 205.742 180.591,208.146 180.242,209.269 180.065 C 210.393 179.888,212.938 179.534,214.925 179.278 C 216.913 179.023,220.660 178.458,223.252 178.024 C 231.970 176.563,235.926 176.000,246.653 174.695 C 249.672 174.328,252.250 173.962,252.381 173.881 C 252.592 173.750,257.026 173.108,261.180 172.607 C 261.994 172.509,262.873 172.193,263.134 171.904 C 263.672 171.309,263.751 171.465,260.650 167.007 C 259.688 165.625,258.067 163.221,257.049 161.665 C 256.031 160.110,254.824 158.342,254.367 157.738 C 251.082 153.388,250.151 151.420,250.984 150.587 C 251.524 150.047,257.954 147.054,258.574 147.054 C 258.724 147.054,259.817 146.578,261.002 145.995 C 262.188 145.413,263.510 144.827,263.941 144.693 C 264.371 144.559,265.573 144.061,266.612 143.586 C 267.650 143.110,270.196 142.062,272.270 141.257 C 274.344 140.452,277.074 139.347,278.337 138.803 C 280.145 138.023,280.750 137.886,281.186 138.159 C 281.644 138.444,281.736 138.400,281.718 137.902 C 281.696 137.267,282.178 137.036,290.957 133.467 C 293.113 132.591,295.269 131.861,295.749 131.845 C 296.228 131.828,296.621 131.663,296.621 131.477 C 296.622 131.292,298.142 130.497,300.000 129.711 C 306.698 126.876,308.892 125.983,311.143 125.174 C 312.403 124.722,314.130 124.001,314.983 123.572 C 315.835 123.142,317.814 122.326,319.382 121.759 C 320.949 121.191,324.069 119.946,326.316 118.991 C 328.562 118.037,332.663 116.317,335.428 115.169 C 338.193 114.021,341.386 112.666,342.523 112.158 C 343.660 111.649,344.705 111.233,344.845 111.233 C 344.985 111.233,345.681 110.968,346.391 110.644 C 347.102 110.319,348.814 109.588,350.196 109.019 C 353.796 107.538,354.808 107.111,358.680 105.443 C 360.581 104.624,362.844 103.693,363.708 103.375 C 366.547 102.329,370.778 100.271,370.778 99.936 C 370.778 99.606,366.327 99.449,366.009 99.768 " stroke="none" fill="#fbfb07" fill-rule="evenodd"></path><path id="path2" d="M0.053 97.958 C 0.082 151.834,0.154 195.350,0.214 194.658 C 4.814 141.118,87.751 120.858,128.267 163.378 C 132.546 167.869,131.511 167.721,137.385 164.676 C 140.024 163.308,142.785 161.894,143.519 161.534 C 144.254 161.174,145.456 160.576,146.190 160.204 C 146.925 159.833,149.222 158.692,151.296 157.669 C 153.370 156.646,155.279 155.677,155.538 155.515 C 155.797 155.354,157.177 154.625,158.603 153.895 C 160.029 153.166,161.276 152.320,161.372 152.016 C 161.529 151.523,157.899 142.631,146.583 115.789 C 144.980 111.987,143.148 107.604,142.513 106.049 C 140.906 102.116,141.810 102.400,131.029 102.437 C 125.931 102.455,121.510 102.462,121.204 102.452 C 120.686 102.436,120.655 101.911,120.733 94.658 L 120.817 86.881 147.840 86.881 L 174.863 86.881 174.863 94.580 L 174.863 102.278 166.954 102.435 C 162.604 102.522,158.957 102.681,158.848 102.790 C 158.657 102.982,163.892 115.941,164.798 117.518 C 165.186 118.192,165.464 118.299,166.757 118.274 C 168.870 118.233,179.817 117.241,182.090 116.884 C 183.898 116.600,190.102 115.998,198.115 115.328 C 200.189 115.155,203.865 114.800,206.284 114.540 C 216.264 113.465,219.987 113.119,221.576 113.117 C 222.498 113.116,224.101 112.973,225.137 112.800 C 226.174 112.626,228.932 112.349,231.265 112.183 C 237.347 111.752,246.628 110.980,250.196 110.609 C 251.881 110.434,254.639 110.149,256.324 109.976 C 258.009 109.803,261.702 109.518,264.531 109.343 C 267.360 109.167,269.812 108.939,269.980 108.836 C 270.449 108.546,270.635 109.361,263.729 81.383 C 263.281 79.568,262.697 77.659,262.430 77.141 C 262.164 76.622,261.845 75.632,261.721 74.941 C 261.597 74.250,261.134 71.846,260.693 69.599 C 258.821 60.064,258.495 61.216,263.315 60.327 C 265.302 59.961,267.918 59.467,269.128 59.229 C 273.275 58.416,276.671 57.760,279.026 57.319 C 280.322 57.077,282.372 56.678,283.582 56.434 C 284.792 56.190,286.984 55.759,288.452 55.476 C 289.921 55.192,292.255 54.742,293.637 54.474 C 302.039 52.848,301.239 52.700,301.848 55.990 C 302.081 57.254,302.485 59.419,302.744 60.801 C 304.389 69.568,304.454 68.791,302.050 69.146 C 301.225 69.268,297.722 69.937,294.266 70.633 C 290.809 71.329,286.002 72.277,283.582 72.741 C 278.686 73.678,278.205 73.923,278.699 75.221 C 278.879 75.695,279.026 76.572,279.026 77.171 C 279.026 77.770,279.228 78.744,279.475 79.334 C 279.721 79.925,281.275 85.824,282.927 92.443 C 284.579 99.062,286.081 105.008,286.264 105.656 L 286.597 106.834 290.431 106.808 C 292.540 106.793,295.114 106.661,296.151 106.513 C 297.188 106.366,301.147 105.951,304.949 105.591 C 308.751 105.230,312.993 104.785,314.375 104.601 C 315.758 104.417,318.657 104.154,320.817 104.015 C 326.019 103.682,331.923 103.098,333.802 102.731 C 334.637 102.568,335.980 102.438,336.788 102.441 C 337.595 102.445,341.013 102.167,344.383 101.823 C 362.880 99.937,370.778 99.359,370.778 99.890 C 370.778 100.263,366.701 102.272,363.708 103.375 C 362.844 103.693,360.581 104.624,358.680 105.443 C 354.808 107.111,353.796 107.538,350.196 109.019 C 348.814 109.588,347.102 110.319,346.391 110.644 C 345.681 110.968,344.985 111.233,344.845 111.233 C 344.705 111.233,343.660 111.649,342.523 112.158 C 341.386 112.666,338.193 114.021,335.428 115.169 C 332.663 116.317,328.562 118.037,326.316 118.991 C 324.069 119.946,320.949 121.191,319.382 121.759 C 317.814 122.326,315.835 123.142,314.983 123.572 C 314.130 124.001,312.403 124.722,311.143 125.174 C 308.892 125.983,306.698 126.876,300.000 129.711 C 295.891 131.450,295.879 130.788,300.149 137.672 C 304.207 144.213,303.757 143.857,306.914 143.024 C 345.695 132.801,387.751 151.925,397.624 184.271 C 410.788 227.400,363.605 265.819,310.614 255.121 C 277.652 248.467,254.597 222.069,257.520 194.328 C 257.767 191.985,258.112 189.802,258.286 189.477 C 258.459 189.152,258.602 188.418,258.602 187.845 C 258.602 186.544,260.126 181.836,261.717 178.227 C 266.103 168.273,275.974 157.538,286.033 151.783 C 289.157 149.995,289.212 150.492,285.186 144.072 C 280.925 137.279,281.264 137.540,278.338 138.802 C 277.074 139.347,274.344 140.452,272.270 141.257 C 270.196 142.062,267.650 143.110,266.612 143.586 C 265.573 144.061,264.371 144.559,263.941 144.693 C 263.510 144.827,262.188 145.413,261.002 145.995 C 259.817 146.578,258.724 147.054,258.574 147.054 C 257.954 147.054,251.524 150.047,250.984 150.587 C 250.151 151.420,251.082 153.388,254.367 157.738 C 254.824 158.342,256.031 160.110,257.049 161.665 C 258.067 163.221,259.688 165.625,260.650 167.007 C 263.751 171.465,263.672 171.309,263.134 171.904 C 262.873 172.193,261.994 172.509,261.180 172.607 C 257.026 173.108,252.592 173.750,252.381 173.881 C 252.250 173.962,249.672 174.328,246.653 174.695 C 235.926 176.000,231.970 176.563,223.252 178.024 C 220.660 178.458,216.913 179.023,214.925 179.278 C 212.938 179.534,210.393 179.888,209.269 180.065 C 208.146 180.242,205.742 180.591,203.928 180.841 C 202.113 181.091,199.214 181.514,197.486 181.780 C 195.758 182.047,192.506 182.471,190.259 182.722 C 188.013 182.973,184.195 183.474,181.775 183.837 C 179.356 184.200,175.892 184.696,174.077 184.940 C 172.262 185.184,169.859 185.526,168.735 185.700 C 167.612 185.874,164.996 186.226,162.922 186.483 C 160.848 186.740,157.596 187.172,155.695 187.444 C 153.794 187.715,150.896 188.053,149.254 188.196 C 145.941 188.485,142.023 189.426,142.033 189.932 C 142.036 190.112,142.243 192.168,142.492 194.501 C 146.905 235.833,96.686 267.261,47.912 253.691 C 21.627 246.378,2.797 226.499,0.328 203.456 C 0.198 202.247,0.071 226.673,0.046 257.738 L 0.000 314.218 200.000 314.218 L 400.000 314.218 400.000 157.109 L 400.000 0.000 200.000 0.000 L 0.000 0.000 0.053 97.958 M154.221 4.950 C 159.003 6.840,160.984 11.683,158.914 16.418 L 158.398 17.596 154.193 17.596 C 149.855 17.596,149.319 17.490,149.934 16.749 C 150.749 15.766,150.426 13.525,149.327 12.543 C 147.299 10.730,142.152 11.440,141.225 13.660 C 140.088 16.379,141.813 17.819,148.527 19.754 C 155.957 21.895,158.233 24.942,157.131 31.271 C 155.953 38.037,151.379 40.927,141.870 40.913 C 132.371 40.899,129.166 38.696,129.151 32.167 C 129.142 28.464,129.018 28.553,134.058 28.663 L 138.099 28.751 138.264 30.165 C 138.782 34.598,148.026 34.919,147.987 30.503 C 147.969 28.440,146.574 27.450,141.098 25.614 C 133.655 23.117,131.808 21.208,131.823 16.025 C 131.841 9.842,135.098 6.080,141.738 4.572 C 144.836 3.869,152.037 4.087,154.221 4.950 M346.269 4.836 C 351.098 6.650,353.486 12.311,351.122 16.339 L 350.476 17.439 346.334 17.527 L 342.192 17.614 342.391 15.707 C 342.738 12.385,341.666 11.472,337.652 11.675 C 334.952 11.812,333.726 12.485,333.267 14.083 C 332.532 16.645,334.495 18.041,341.555 19.975 C 347.259 21.537,349.560 24.073,349.521 28.752 C 349.459 36.248,345.676 39.952,337.131 40.881 C 326.636 42.023,320.585 38.497,321.228 31.614 C 321.527 28.411,321.238 28.594,326.002 28.594 C 330.541 28.594,330.558 28.601,330.558 30.463 C 330.558 33.498,337.310 34.790,339.592 32.192 C 341.749 29.734,339.923 27.875,333.016 25.498 C 330.998 24.803,328.948 24.022,328.460 23.761 C 321.223 19.896,322.924 8.414,331.186 5.354 C 334.831 4.004,343.280 3.714,346.269 4.836 M98.849 6.206 C 98.732 7.200,98.467 8.861,98.258 9.898 L 97.879 11.783 89.971 11.940 C 80.784 12.123,81.779 11.699,81.136 15.703 C 80.490 19.723,80.059 19.471,87.588 19.477 C 92.496 19.481,93.637 19.563,93.637 19.912 C 93.637 20.470,92.726 25.756,92.506 26.473 C 92.353 26.972,91.769 27.023,86.135 27.023 C 78.673 27.023,79.134 26.778,78.430 31.108 C 77.146 38.995,76.910 39.949,76.170 40.231 C 75.381 40.531,68.344 40.484,68.037 40.176 C 67.881 40.020,73.293 8.219,74.006 5.106 L 74.168 4.399 86.614 4.399 L 99.060 4.399 98.849 6.206 M123.910 7.463 C 124.378 14.523,124.151 40.139,123.619 40.343 C 122.960 40.596,116.310 40.581,115.351 40.324 L 114.598 40.123 114.797 36.433 C 115.032 32.055,115.351 32.364,110.602 32.364 C 106.455 32.364,106.632 32.220,105.283 36.699 C 104.060 40.757,104.421 40.526,99.293 40.525 C 95.466 40.525,94.709 40.326,94.959 39.388 C 95.094 38.883,106.454 7.012,107.178 5.106 L 107.447 4.399 115.577 4.399 L 123.707 4.399 123.910 7.463 M197.942 5.106 C 197.933 5.495,197.685 7.156,197.392 8.798 L 196.858 11.783 190.834 11.940 C 187.522 12.027,184.733 12.176,184.637 12.272 C 184.420 12.491,183.721 16.223,181.416 29.492 C 179.645 39.685,179.572 39.982,178.800 40.278 C 177.924 40.612,171.117 40.509,170.765 40.156 C 170.568 39.958,171.452 34.127,172.661 27.651 C 174.868 15.824,175.369 12.470,174.965 12.214 C 174.736 12.069,171.968 11.948,168.814 11.945 C 165.660 11.942,163.079 11.897,163.079 11.844 C 163.079 11.367,164.363 4.923,164.504 4.696 C 164.616 4.516,171.208 4.399,181.323 4.399 L 197.958 4.399 197.942 5.106 M232.789 4.733 C 237.517 5.747,239.389 9.065,238.386 14.654 C 237.725 18.336,236.401 20.672,234.250 21.951 C 233.635 22.317,233.638 22.336,234.407 22.863 C 237.699 25.119,238.239 28.190,236.268 33.456 C 234.109 39.229,230.476 40.506,216.182 40.519 C 208.300 40.527,207.984 40.479,208.188 39.323 C 209.781 30.280,211.023 23.198,211.613 19.796 C 212.017 17.463,212.727 13.362,213.192 10.683 C 213.657 8.005,214.163 5.495,214.317 5.106 L 214.598 4.399 222.916 4.399 C 227.597 4.399,231.914 4.545,232.789 4.733 M256.088 4.883 C 256.088 5.311,253.408 20.886,250.426 37.792 C 250.153 39.343,249.882 40.010,249.429 40.252 C 248.769 40.605,241.528 40.536,241.167 40.173 C 241.010 40.015,246.395 8.411,247.142 5.106 C 247.350 4.184,256.088 3.967,256.088 4.883 M272.189 4.783 C 272.259 4.994,272.141 6.090,271.927 7.218 C 271.713 8.346,271.310 10.542,271.033 12.097 C 270.756 13.653,270.363 15.819,270.159 16.911 C 269.750 19.111,269.937 19.467,271.503 19.477 C 272.811 19.485,273.202 19.002,277.883 11.616 L 282.358 4.556 286.976 4.469 C 289.516 4.421,291.595 4.498,291.595 4.639 C 291.595 4.781,289.906 7.577,287.842 10.854 C 285.778 14.130,283.293 18.105,282.319 19.687 L 280.548 22.563 282.929 30.875 C 286.004 41.608,286.239 40.644,280.593 40.490 C 275.735 40.357,276.249 40.893,274.301 33.923 C 272.430 27.230,272.313 27.021,270.441 27.028 C 268.464 27.035,268.455 27.053,267.238 33.781 C 265.891 41.233,266.575 40.361,262.004 40.451 C 258.041 40.529,256.877 40.261,257.167 39.337 C 257.259 39.045,257.548 37.604,257.809 36.135 C 258.598 31.700,260.159 22.790,261.140 17.125 C 262.398 9.856,263.335 4.935,263.516 4.642 C 263.780 4.214,272.044 4.348,272.189 4.783 M321.116 5.420 C 321.108 5.982,320.860 7.643,320.566 9.112 L 320.031 11.783 312.019 11.954 C 307.612 12.048,303.986 12.154,303.960 12.190 C 303.733 12.511,302.903 18.077,303.032 18.413 C 303.169 18.770,304.391 18.853,309.495 18.853 L 315.789 18.853 315.778 19.874 C 315.771 20.436,315.522 22.168,315.224 23.723 L 314.683 26.551 308.254 26.637 C 300.907 26.734,301.384 26.535,300.828 29.736 C 300.282 32.873,299.726 32.668,308.798 32.674 C 312.989 32.677,316.417 32.785,316.417 32.914 C 316.411 34.354,315.041 39.828,314.603 40.160 C 314.070 40.565,292.053 40.676,290.541 40.282 C 289.904 40.115,289.893 40.325,290.797 35.350 C 291.368 32.209,295.605 8.092,295.848 6.599 C 296.243 4.176,294.938 4.399,308.741 4.399 L 321.131 4.399 321.116 5.420 M222.449 12.145 C 221.936 12.284,221.401 14.352,221.017 17.675 L 220.809 19.482 223.376 19.482 C 227.510 19.482,229.065 18.374,229.065 15.430 C 229.065 12.875,225.782 11.246,222.449 12.145 M113.058 13.096 C 112.765 13.173,112.386 13.687,112.215 14.238 C 112.045 14.789,111.259 17.309,110.469 19.839 C 108.495 26.165,108.392 25.766,112.000 25.766 C 115.605 25.766,115.249 26.417,115.512 19.346 C 115.763 12.599,115.687 12.403,113.058 13.096 M219.888 25.875 C 219.338 26.426,218.508 31.421,218.828 32.255 C 219.115 33.004,224.841 32.683,226.314 31.836 C 228.582 30.531,228.928 27.304,226.912 26.261 C 225.527 25.545,220.495 25.269,219.888 25.875 M64.305 154.461 C 20.088 159.057,-1.087 198.526,26.005 225.847 C 49.591 249.631,96.359 248.747,118.562 224.096 C 126.091 215.738,129.978 204.911,128.820 195.524 C 128.249 190.892,128.252 190.893,120.974 192.209 C 119.505 192.475,117.738 192.750,117.046 192.820 C 111.369 193.394,109.335 193.639,108.248 193.879 C 106.391 194.289,98.280 195.665,95.208 196.091 C 93.739 196.294,91.830 196.577,90.966 196.719 C 90.102 196.861,86.779 197.334,83.582 197.772 C 80.385 198.209,76.850 198.727,75.727 198.923 C 72.124 199.552,69.441 199.658,69.455 199.171 C 69.468 198.728,72.775 196.658,74.156 196.229 C 74.852 196.013,81.881 192.594,84.368 191.262 C 84.886 190.984,85.734 190.555,86.253 190.309 C 87.099 189.908,95.577 185.579,98.350 184.133 C 98.955 183.817,100.369 183.121,101.493 182.584 C 102.616 182.048,103.888 181.399,104.321 181.141 C 104.753 180.884,106.458 180.002,108.110 179.182 C 120.206 173.177,119.600 173.917,115.512 170.143 C 102.888 158.488,83.294 152.488,64.305 154.461 M321.445 154.459 C 317.105 154.925,312.634 155.740,312.236 156.138 C 311.944 156.430,313.722 159.669,316.774 164.403 C 317.920 166.181,320.870 170.888,323.330 174.863 C 325.789 178.837,328.332 182.938,328.980 183.975 C 329.628 185.012,331.473 187.981,333.081 190.573 C 334.688 193.166,336.454 195.994,337.006 196.858 C 338.257 198.816,338.727 199.710,338.727 200.126 C 338.727 200.671,325.729 208.801,325.290 208.530 C 325.082 208.401,314.862 192.061,309.348 183.042 C 308.657 181.911,307.229 179.608,306.175 177.924 C 305.121 176.240,302.516 172.056,300.386 168.626 C 296.014 161.584,296.214 161.768,294.191 162.936 C 267.519 178.331,263.303 208.344,285.087 227.750 C 310.660 250.531,357.662 247.452,377.727 221.681 C 402.351 190.055,368.331 149.423,321.445 154.459 M50.240 274.319 C 56.241 275.098,59.391 278.343,59.384 283.739 C 59.375 290.384,56.059 294.520,46.203 300.181 C 41.996 302.598,41.989 302.592,49.159 302.592 C 56.443 302.592,55.959 302.237,55.097 306.946 L 54.484 310.291 41.637 310.373 C 34.571 310.418,28.681 310.347,28.549 310.214 C 28.176 309.842,29.404 304.716,30.274 303.014 C 32.059 299.523,33.518 298.346,41.236 294.180 C 47.474 290.812,48.719 289.885,49.644 287.915 C 51.389 284.204,49.210 281.377,45.083 281.996 C 42.160 282.434,39.997 285.658,40.437 288.922 C 40.654 290.532,40.377 290.642,36.135 290.642 C 31.361 290.642,31.119 290.373,31.704 285.717 C 32.517 279.237,37.147 275.086,44.415 274.320 C 47.597 273.985,47.667 273.985,50.240 274.319 M363.121 274.807 C 368.437 276.272,371.032 281.674,368.707 286.437 L 368.107 287.667 363.865 287.667 C 360.242 287.667,359.643 287.598,359.761 287.196 C 360.959 283.121,358.841 281.029,354.323 281.825 C 350.207 282.550,349.401 286.189,352.950 288.024 C 353.483 288.300,355.733 289.071,357.949 289.737 C 365.254 291.935,367.151 293.893,367.077 299.160 C 366.962 307.313,362.057 311.076,351.548 311.076 C 341.909 311.076,337.734 307.611,338.923 300.601 L 339.199 298.979 343.598 298.979 L 347.997 298.979 348.085 300.079 C 348.330 303.133,352.406 304.655,356.151 303.090 C 360.286 301.363,357.843 297.930,350.911 295.727 C 342.256 292.976,339.416 288.046,342.549 281.211 C 345.221 275.379,354.602 272.459,363.121 274.807 M109.535 274.749 C 109.703 275.185,109.316 277.863,108.680 280.676 L 108.343 282.168 102.397 282.168 C 96.531 282.168,96.448 282.178,96.148 282.875 C 95.981 283.264,94.851 289.309,93.638 296.308 C 92.425 303.307,91.360 309.352,91.272 309.741 C 91.115 310.433,91.017 310.448,86.718 310.448 C 81.532 310.448,81.950 311.121,83.113 304.635 C 85.811 289.597,86.929 282.906,86.802 282.561 C 86.693 282.266,85.183 282.168,80.721 282.168 C 77.455 282.168,74.784 282.051,74.784 281.907 C 74.784 281.265,76.010 274.932,76.190 274.639 C 76.531 274.087,109.323 274.195,109.535 274.749 M138.767 274.775 C 138.948 275.246,138.445 278.869,137.904 280.990 L 137.603 282.168 129.771 282.168 C 120.751 282.168,121.585 281.835,120.967 285.686 C 120.384 289.317,119.948 289.081,127.249 289.081 C 132.922 289.081,133.543 289.133,133.543 289.606 C 133.543 290.496,132.595 295.481,132.284 296.223 C 131.996 296.912,131.880 296.925,125.468 297.009 L 118.946 297.093 118.565 299.293 C 118.356 300.503,118.176 301.738,118.165 302.037 C 118.148 302.537,118.779 302.588,125.923 302.665 L 133.700 302.749 133.616 304.635 C 133.570 305.672,133.358 307.368,133.145 308.405 L 132.757 310.291 120.267 310.373 C 108.518 310.450,107.777 310.422,107.781 309.901 C 107.783 309.597,108.214 306.944,108.739 304.006 C 109.264 301.068,109.817 297.958,109.969 297.093 C 110.121 296.229,110.617 293.401,111.072 290.809 C 111.527 288.217,112.252 284.116,112.683 281.697 C 113.114 279.277,113.549 276.803,113.651 276.198 C 113.981 274.223,113.366 274.313,126.521 274.313 C 136.849 274.313,138.616 274.379,138.767 274.775 M165.706 291.985 C 165.855 301.618,165.895 309.713,165.795 309.974 C 165.644 310.366,164.829 310.448,161.056 310.448 L 156.500 310.448 156.412 306.599 L 156.324 302.749 152.400 302.749 L 148.477 302.749 148.074 303.589 C 147.853 304.050,147.268 305.747,146.773 307.359 L 145.874 310.291 141.280 310.378 C 136.954 310.459,136.685 310.430,136.685 309.871 C 136.685 309.545,138.605 303.921,140.952 297.373 C 143.299 290.825,145.992 283.277,146.935 280.601 C 147.879 277.924,148.862 275.412,149.120 275.018 L 149.589 274.302 157.513 274.386 L 165.436 274.470 165.706 291.985 M186.265 274.705 C 186.443 274.921,187.698 278.621,189.053 282.928 C 190.408 287.234,191.683 290.813,191.886 290.880 C 192.090 290.948,194.693 287.354,197.670 282.894 C 204.077 273.295,202.850 274.323,207.896 274.317 C 213.516 274.311,213.304 271.653,209.426 293.480 C 208.827 296.850,207.979 301.658,207.540 304.163 C 207.102 306.669,206.664 309.108,206.567 309.584 L 206.392 310.448 201.979 310.448 L 197.566 310.448 197.731 308.798 C 197.822 307.891,198.483 303.911,199.200 299.954 C 201.109 289.419,201.388 289.389,194.369 300.471 L 193.225 302.278 189.944 302.278 L 186.663 302.278 186.199 300.628 C 185.944 299.721,185.269 297.323,184.698 295.298 C 183.160 289.841,183.457 289.042,180.202 307.384 L 179.659 310.448 175.297 310.448 L 170.935 310.448 170.932 309.584 C 170.930 309.108,171.213 307.164,171.561 305.263 C 171.909 303.362,172.963 297.423,173.904 292.066 C 174.845 286.709,175.913 280.632,176.277 278.563 C 176.641 276.493,177.108 274.693,177.314 274.561 C 177.980 274.138,185.902 274.266,186.265 274.705 M248.818 274.632 C 254.573 275.380,256.977 278.462,256.119 283.992 C 255.494 288.022,254.241 290.565,252.324 291.698 C 251.403 292.242,251.061 292.852,251.678 292.852 C 253.300 292.852,255.345 296.654,255.008 299.044 C 253.654 308.656,250.555 310.448,235.292 310.448 L 225.559 310.448 225.735 309.584 C 225.832 309.108,226.191 307.093,226.533 305.106 C 227.755 298.016,229.683 287.010,230.002 285.310 C 230.180 284.360,230.680 281.610,231.111 279.200 C 231.543 276.791,232.073 274.707,232.288 274.571 C 232.839 274.221,246.027 274.270,248.818 274.632 M273.571 274.784 C 273.670 275.043,272.358 283.138,270.654 292.773 L 267.557 310.291 263.340 310.379 C 258.511 310.480,258.527 310.487,258.885 308.397 C 260.434 299.335,263.264 283.313,264.100 278.869 C 264.360 277.486,264.572 276.065,264.572 275.711 C 264.572 274.478,265.137 274.313,269.358 274.313 C 272.652 274.313,273.423 274.399,273.571 274.784 M289.607 274.813 C 289.712 275.088,289.281 278.349,288.648 282.060 C 287.361 289.604,287.345 289.395,289.235 289.395 L 290.610 289.395 295.242 282.090 C 300.742 273.414,299.636 274.323,304.695 274.317 C 309.681 274.312,309.664 274.295,307.724 277.368 C 306.889 278.690,305.287 281.233,304.163 283.018 C 303.040 284.803,301.219 287.695,300.117 289.443 L 298.114 292.622 298.978 295.643 C 299.454 297.305,300.231 300.008,300.706 301.650 C 303.599 311.648,303.921 310.484,298.291 310.378 L 293.675 310.291 291.920 304.163 C 289.805 296.782,290.073 297.251,287.981 297.251 C 285.866 297.251,286.072 296.819,284.828 303.867 C 283.535 311.191,284.169 310.448,279.217 310.448 C 274.191 310.448,274.585 310.821,275.304 306.745 C 275.631 304.893,276.385 300.621,276.980 297.251 C 277.575 293.881,278.709 287.452,279.499 282.964 C 280.299 278.428,281.105 274.698,281.317 274.564 C 282.122 274.052,289.399 274.271,289.607 274.813 M338.657 275.412 C 338.705 275.931,338.493 277.628,338.186 279.183 L 337.628 282.011 329.684 282.095 C 320.524 282.192,321.534 281.748,320.826 285.984 C 320.278 289.267,319.899 289.081,327.120 289.081 L 333.386 289.081 333.385 289.788 C 333.383 291.098,332.399 296.140,332.067 296.540 C 331.822 296.835,330.106 296.936,325.341 296.936 C 318.043 296.936,318.951 296.515,318.316 300.193 C 317.879 302.721,317.467 302.592,326.002 302.592 C 330.215 302.592,333.735 302.710,333.824 302.853 C 333.997 303.133,332.891 309.663,332.588 310.154 C 332.335 310.562,307.620 310.547,307.620 310.139 C 307.620 309.969,308.618 304.207,309.839 297.334 C 311.060 290.462,312.426 282.647,312.874 279.969 C 313.323 277.290,313.828 274.920,313.996 274.702 C 314.234 274.392,316.961 274.323,326.436 274.388 L 338.570 274.470 338.657 275.412 M239.656 282.378 C 239.304 282.948,238.406 288.718,238.593 289.207 C 238.844 289.859,242.753 289.907,244.262 289.276 C 246.732 288.244,247.485 285.300,245.771 283.381 C 244.858 282.359,240.146 281.586,239.656 282.378 M153.966 283.899 C 153.794 284.352,153.652 284.820,153.652 284.938 C 153.651 285.056,152.944 287.391,152.081 290.125 C 150.046 296.567,149.895 295.994,153.630 295.994 L 156.750 295.994 157.008 294.187 C 157.150 293.193,157.266 290.330,157.266 287.824 L 157.266 283.268 155.773 283.172 C 154.410 283.085,154.251 283.149,153.966 283.899 M237.285 296.229 C 236.951 296.872,236.292 300.537,236.292 301.754 L 236.292 302.592 239.513 302.587 C 244.620 302.579,246.979 300.647,245.518 297.667 C 244.616 295.825,238.088 294.686,237.285 296.229 " stroke="none" fill="#fbfbfb" fill-rule="evenodd"></path></g></svg>